<svg id="visual" viewBox="0 0 1400 540" width="1400" height="540" xmlns="http://www.w3.org/2000/svg" xmlns:xlink="http://www.w3.org/1999/xlink" version="1.1"><rect x="0" y="0" width="1400" height="540" fill="#fff"></rect><defs><linearGradient id="grad1_0" x1="61.4%" y1="100%" x2="100%" y2="0%"><stop offset="-1.851851851851853%" stop-color="#ffffff" stop-opacity="1"></stop><stop offset="101.85185185185186%" stop-color="#ffffff" stop-opacity="1"></stop></linearGradient></defs><defs><linearGradient id="grad2_0" x1="0%" y1="100%" x2="38.6%" y2="0%"><stop offset="-1.851851851851853%" stop-color="#ffffff" stop-opacity="1"></stop><stop offset="101.85185185185186%" stop-color="#ffffff" stop-opacity="1"></stop></linearGradient></defs><g transform="translate(1400, 540)"><path d="M-243 0C-223.1 -23.3 -203.2 -46.6 -195.9 -81.1C-188.5 -115.7 -193.8 -161.6 -171.8 -171.8C-149.8 -182.1 -100.5 -156.7 -67.4 -162.6C-34.2 -168.5 -17.1 -205.8 0 -243L0 0Z" fill="#00b289"></path></g><g transform="translate(0, 0)"><path d="M243 0C242.7 33.4 242.3 66.8 224.5 93C206.7 119.1 171.4 138 140 140C108.6 142 81.2 127 58.6 141.4C35.9 155.7 17.9 199.3 0 243L0 0Z" fill="#00b289"></path></g></svg>